<svg width="1431" height="586" viewBox="0 0 1431 586" fill="none" xmlns="http://www.w3.org/2000/svg">
<path d="M58 350C58 294.772 102.772 250 158 250H183C252.036 250 308 305.964 308 375V434C308 442.837 300.837 450 292 450H158C102.772 450 58 405.228 58 350Z" fill="#D9D9D9"/>
<path d="M170.113 508.698C185.698 488.23 192.513 462.409 189.059 436.916C185.606 411.423 172.167 388.346 151.698 372.761C131.23 357.177 105.409 350.362 79.916 353.815C54.4229 357.268 31.3457 370.708 15.7613 391.176L40.4214 409.952C51.0261 396.024 66.7294 386.879 84.0767 384.529C101.424 382.179 118.994 386.817 132.922 397.421C146.85 408.026 155.995 423.729 158.345 441.077C160.695 458.424 156.058 475.994 145.453 489.922L170.113 508.698Z" fill="#EC3A2F"/>
<path d="M1105 221C1105 151.964 1160.96 96 1230 96H1255C1310.23 96 1355 140.772 1355 196C1355 251.228 1310.23 296 1255 296H1121C1112.16 296 1105 288.837 1105 280V221Z" fill="#D9D9D9"/>
<path d="M1261.86 65.5812C1251.82 82.9744 1249.1 103.644 1254.3 123.044C1259.5 142.444 1272.19 158.984 1289.58 169.026C1306.97 179.068 1327.64 181.789 1347.04 176.591C1366.44 171.393 1382.98 158.701 1393.03 141.308L1372.07 129.209C1365.24 141.045 1353.98 149.681 1340.78 153.218C1327.58 156.756 1313.52 154.904 1301.68 148.071C1289.84 141.237 1281.21 129.982 1277.67 116.781C1274.13 103.581 1275.99 89.5153 1282.82 77.6797L1261.86 65.5812Z" fill="#FFB829"/>
</svg>
